<svg width="78" height="78" viewBox="0 0 78 78" fill="none" xmlns="http://www.w3.org/2000/svg">
<circle cx="39" cy="39" r="32" fill="#8D9B00" stroke="white" stroke-width="14"/>
<path d="M26 37.5C25.1716 37.5 24.5 38.1716 24.5 39C24.5 39.8284 25.1716 40.5 26 40.5V39V37.5ZM52.0607 40.0607C52.6464 39.4749 52.6464 38.5251 52.0607 37.9393L42.5147 28.3934C41.9289 27.8076 40.9792 27.8076 40.3934 28.3934C39.8076 28.9792 39.8076 29.9289 40.3934 30.5147L48.8787 39L40.3934 47.4853C39.8076 48.0711 39.8076 49.0208 40.3934 49.6066C40.9792 50.1924 41.9289 50.1924 42.5147 49.6066L52.0607 40.0607ZM26 39V40.5H51V39V37.5H26V39Z" fill="white"/>
</svg>
