<svg width="32" height="26" viewBox="0 0 32 26" fill="none" xmlns="http://www.w3.org/2000/svg">
<path d="M0.898093 22.2569C-0.0236207 22.8656 -0.277368 24.1062 0.331333 25.0279C0.940034 25.9496 2.18068 26.2034 3.10239 25.5947L2.00024 23.9258L0.898093 22.2569ZM31.6983 6.00794C31.9196 4.92578 31.2218 3.86908 30.1396 3.64775L12.5047 0.0409098C11.4225 -0.180424 10.3658 0.517419 10.1445 1.59959C9.92313 2.68175 10.621 3.73845 11.7031 3.95978L27.3786 7.16586L24.1726 22.8414C23.9512 23.9235 24.6491 24.9802 25.7312 25.2015C26.8134 25.4229 27.8701 24.725 28.0914 23.6429L31.6983 6.00794ZM2.00024 23.9258L3.10239 25.5947L30.841 7.2761L29.7388 5.60718L28.6367 3.93827L0.898093 22.2569L2.00024 23.9258Z" fill="black"/>
</svg>
