<svg width="922" height="214" viewBox="0 0 922 214" fill="none" xmlns="http://www.w3.org/2000/svg">
<path d="M66.0001 147.3V180.6C66.0001 201.6 52.2001 213.6 33.0001 213.6C14.1001 213.6 9.77702e-05 201.6 9.77702e-05 180.6V138H30.0001V182.1C30.0001 185.1 30.9001 186.6 33.0001 186.6C35.1001 186.6 36.0001 185.1 36.0001 182.1V147.3C36.0001 134.7 28.2001 122.1 20.1001 108.6C10.5001 93 9.77702e-05 76.2 9.77702e-05 57V33C9.77702e-05 12.3 14.4001 -2.12193e-05 33.3001 -2.12193e-05C52.2001 -2.12193e-05 66.0001 12 66.0001 33V66.3H36.0001V31.5C36.0001 28.5 35.1001 27 33.0001 27C30.9001 27 30.0001 28.5 30.0001 31.5V57C30.0001 69.6 37.8001 82.2 46.2001 95.7C55.8001 111.3 66.0001 128.1 66.0001 147.3ZM137.499 1.79997V180.6C137.499 201.6 123.699 213.6 104.499 213.6C85.2985 213.6 71.4985 201.6 71.4985 180.6V1.79997H101.499V182.1C101.499 185.1 102.399 186.6 104.499 186.6C106.599 186.6 107.499 185.1 107.499 182.1V1.79997H137.499ZM251.569 1.79997V211.8H223.069L224.869 76.8L224.569 40.8H223.969L221.869 76.8L211.069 211.8H184.369L173.569 76.8L171.169 40.8H170.569L170.269 76.8L172.069 211.8H143.569V1.79997H192.469L196.069 121.5L197.569 154.8H198.169L199.369 121.5L202.669 1.79997H251.569ZM365.827 1.79997V211.8H337.327L339.127 76.8L338.827 40.8H338.227L336.127 76.8L325.327 211.8H298.627L287.827 76.8L285.427 40.8H284.827L284.527 76.8L286.327 211.8H257.827V1.79997H306.727L310.327 121.5L311.827 154.8H312.427L313.627 121.5L316.927 1.79997H365.827ZM414.084 1.79997V28.8H402.084V90.6H412.584V117.6H402.084V184.8H415.584V211.8H372.084V1.79997H414.084ZM456.131 123.3C456.131 120.3 455.231 118.8 453.131 118.8H450.131V211.8H420.131V1.79997H453.431C475.331 1.79997 486.131 10.8 486.131 31.8V74.4C486.131 92.4 484.931 101.1 473.531 105V105.6C484.931 109.2 486.131 118.2 486.131 136.2V184.2C486.131 197.7 486.431 201.9 489.731 211.2V211.8H458.831C456.731 203.7 456.131 198.3 456.131 184.5V123.3ZM456.131 33.3C456.131 30.3 455.231 28.8 453.131 28.8H450.131V91.8H453.131C455.231 91.8 456.131 90.3 456.131 87.3V33.3ZM555.155 31.5C555.155 28.5 554.255 27 552.155 27C550.055 27 549.155 28.5 549.155 31.5V182.1C549.155 185.1 550.055 186.6 552.155 186.6C554.255 186.6 555.155 185.1 555.155 182.1V123H585.155V180.6C585.155 201.6 571.355 213.6 552.155 213.6C532.955 213.6 519.155 201.6 519.155 180.6V33C519.155 12.3 533.555 -2.12193e-05 552.455 -2.12193e-05C571.355 -2.12193e-05 585.155 12 585.155 33V81.3H555.155V31.5ZM657.225 33V180.6C657.225 201.6 643.425 213.6 624.225 213.6C605.025 213.6 591.225 201.6 591.225 180.6V33C591.225 12.3 605.625 -2.12193e-05 624.525 -2.12193e-05C643.425 -2.12193e-05 657.225 12 657.225 33ZM627.225 31.5C627.225 28.5 626.325 27 624.225 27C622.125 27 621.225 28.5 621.225 31.5V182.1C621.225 185.1 622.125 186.6 624.225 186.6C626.325 186.6 627.225 185.1 627.225 182.1V31.5ZM729.295 1.79997V180.6C729.295 201.6 715.495 213.6 696.295 213.6C677.095 213.6 663.295 201.6 663.295 180.6V1.79997H693.295V182.1C693.295 185.1 694.195 186.6 696.295 186.6C698.395 186.6 699.295 185.1 699.295 182.1V1.79997H729.295ZM771.366 123.3C771.366 120.3 770.466 118.8 768.366 118.8H765.366V211.8H735.366V1.79997H768.666C790.566 1.79997 801.366 10.8 801.366 31.8V74.4C801.366 92.4 800.166 101.1 788.766 105V105.6C800.166 109.2 801.366 118.2 801.366 136.2V184.2C801.366 197.7 801.666 201.9 804.966 211.2V211.8H774.066C771.966 203.7 771.366 198.3 771.366 184.5V123.3ZM771.366 33.3C771.366 30.3 770.466 28.8 768.366 28.8H765.366V91.8H768.366C770.466 91.8 771.366 90.3 771.366 87.3V33.3ZM872.836 147.3V180.6C872.836 201.6 859.036 213.6 839.836 213.6C820.936 213.6 806.836 201.6 806.836 180.6V138H836.836V182.1C836.836 185.1 837.736 186.6 839.836 186.6C841.936 186.6 842.836 185.1 842.836 182.1V147.3C842.836 134.7 835.036 122.1 826.936 108.6C817.336 93 806.836 76.2 806.836 57V33C806.836 12.3 821.236 -2.12193e-05 840.136 -2.12193e-05C859.036 -2.12193e-05 872.836 12 872.836 33V66.3H842.836V31.5C842.836 28.5 841.936 27 839.836 27C837.736 27 836.836 28.5 836.836 31.5V57C836.836 69.6 844.636 82.2 853.036 95.7C862.636 111.3 872.836 128.1 872.836 147.3ZM920.334 1.79997V28.8H908.334V90.6H918.834V117.6H908.334V184.8H921.834V211.8H878.334V1.79997H920.334Z" fill="url(#paint0_radial_14_272)"/>
<defs>
<radialGradient id="paint0_radial_14_272" cx="0" cy="0" r="1" gradientUnits="userSpaceOnUse" gradientTransform="translate(464.524 104.8) rotate(180) scale(641.067 3279.16)">
<stop offset="0.1875" stop-color="#FF9800"/>
<stop offset="0.9996" stop-color="#EB7400"/>
<stop offset="0.9997" stop-opacity="0.68"/>
</radialGradient>
</defs>
</svg>
