<svg width="29" height="30" viewBox="0 0 29 30" fill="none" xmlns="http://www.w3.org/2000/svg">
<path d="M29 14.5287C29 21.8662 23.5711 27.9322 16.5189 28.9168C15.8593 29.0088 15.1847 29.0565 14.5 29.0565C13.7093 29.0565 12.9336 28.9929 12.1771 28.8708C5.27364 27.7573 0 21.7591 0 14.5278C0 6.50432 6.49186 0 14.5 0C22.5082 0 29 6.50432 29 14.5278V14.5287Z" fill="#1C1C1B"/>
<path d="M16.519 11.6653V14.83H20.4266L19.8079 19.094H16.519V28.917C15.8594 29.009 15.1847 29.0567 14.5001 29.0567C13.7094 29.0567 12.9337 28.9931 12.1772 28.871V19.094H8.57349V14.83H12.1772V10.9584C12.1772 8.55579 14.121 6.60742 16.5198 6.60742V6.60993C16.5265 6.60993 16.5332 6.60742 16.5399 6.60742H20.4275V10.2942H17.8875C17.1319 10.2942 16.5198 10.9074 16.5198 11.6645L16.519 11.6653Z" fill="white"/>
</svg>
