<svg width="30" height="30" viewBox="0 0 30 30" fill="none" xmlns="http://www.w3.org/2000/svg">
<path d="M29.2164 14.6539C29.2164 22.0547 23.7469 28.173 16.6422 29.1661C15.9777 29.2589 15.298 29.307 14.6082 29.307C13.8116 29.307 13.0301 29.2429 12.268 29.1197C5.31299 27.9966 0 21.9467 0 14.6531C0 6.56039 6.5403 0 14.6082 0C22.6761 0 29.2164 6.56039 29.2164 14.6531V14.6539Z" fill="#1C1C1B"/>
<path d="M19.1826 5.85742H10.0329C7.5051 5.85742 5.44922 7.91962 5.44922 10.4552V18.8516C5.44922 21.3872 7.5051 23.4494 10.0329 23.4494H19.1826C21.7104 23.4494 23.7662 21.3872 23.7662 18.8516V10.4552C23.7662 7.91962 21.7104 5.85742 19.1826 5.85742ZM7.06599 10.4552C7.06599 8.81403 8.39676 7.47917 10.0329 7.47917H19.1826C20.8187 7.47917 22.1495 8.81403 22.1495 10.4552V18.8516C22.1495 20.4928 20.8187 21.8276 19.1826 21.8276H10.0329C8.39676 21.8276 7.06599 20.4928 7.06599 18.8516V10.4552Z" fill="white"/>
<path d="M14.6073 18.9312C16.9584 18.9312 18.8713 17.0124 18.8713 14.6541C18.8713 12.2957 16.9584 10.377 14.6073 10.377C12.2562 10.377 10.3433 12.2957 10.3433 14.6541C10.3433 17.0124 12.2562 18.9312 14.6073 18.9312ZM14.6073 11.9995C16.0668 11.9995 17.2537 13.1901 17.2537 14.6541C17.2537 16.118 16.0668 17.3086 14.6073 17.3086C13.1478 17.3086 11.9609 16.118 11.9609 14.6541C11.9609 13.1901 13.1478 11.9995 14.6073 11.9995Z" fill="white"/>
<path d="M19.2667 11.0669C19.9002 11.0669 20.4158 10.5497 20.4158 9.91432C20.4158 9.27896 19.9002 8.76172 19.2667 8.76172C18.6333 8.76172 18.1177 9.27896 18.1177 9.91432C18.1177 10.5497 18.6333 11.0669 19.2667 11.0669Z" fill="white"/>
</svg>
