<svg width="29" height="30" viewBox="0 0 29 30" fill="none" xmlns="http://www.w3.org/2000/svg">
<path d="M29 14.5454C29 21.8914 23.5711 27.9643 16.5189 28.9501C15.8593 29.0422 15.1847 29.09 14.5 29.09C13.7093 29.09 12.9336 29.0263 12.1771 28.9041C5.27363 27.7893 0 21.7842 0 14.5446C0 6.51181 6.49187 0 14.5 0C22.5082 0 29 6.51181 29 14.5446V14.5454Z" fill="#1C1C1B"/>
<path d="M7.05554 9.63292C6.66895 9.27278 6.47607 8.82721 6.47607 8.29706C6.47607 7.7669 6.66895 7.30123 7.05554 6.94109C7.44212 6.58095 7.93976 6.40088 8.55011 6.40088C9.16047 6.40088 9.63809 6.58095 10.0238 6.94109C10.4104 7.30123 10.6033 7.7535 10.6033 8.29706C10.6033 8.84061 10.4104 9.27278 10.0238 9.63292C9.63725 9.99305 9.14628 10.1731 8.55011 10.1731C7.95395 10.1731 7.44212 9.99305 7.05554 9.63292ZM10.2777 11.6983V22.7344H6.8017V11.6983H10.2777Z" fill="#FEFFFC"/>
<path d="M21.8521 12.7884C22.6094 13.6134 22.9884 14.7466 22.9884 16.1888V22.5407H19.6862V16.6369C19.6862 15.9099 19.4983 15.3446 19.1226 14.9417C18.7468 14.5389 18.2417 14.3379 17.6071 14.3379C16.9725 14.3379 16.4674 14.5397 16.0916 14.9417C15.7159 15.3446 15.528 15.9099 15.528 16.6369V22.5407H12.2065V11.6687H15.528V13.1109C15.8645 12.6301 16.3179 12.2507 16.8882 11.971C17.4576 11.6921 18.0989 11.5522 18.8111 11.5522C20.0803 11.5522 21.0939 11.9651 21.8512 12.7893L21.8521 12.7884Z" fill="#FEFFFC"/>
</svg>
